<?xml version="1.0" encoding="UTF-8"?>
<svg data-name="Layer 1" version="1.1" viewBox="0 0 48 48" xml:space="preserve" xmlns="http://www.w3.org/2000/svg"><defs><style>
      .cls-1 {
        fill: none;
        stroke: #fff;
        stroke-linecap: round;
        stroke-linejoin: round;
      }
    </style></defs><g fill="none" stroke="#fff" stroke-linecap="round" stroke-linejoin="round"><path d="m14.604 22.56-8.7866 2.1375c-1.0212 0.2247-1.4102 1.9242-0.72539 2.5947l17.856 17.688c0.73367 0.75396 2.0799 0.46051 2.3157-0.55799l4.5486-15.181"/><path d="m29.257 13.469 11.799-3.4721c1.5417-0.33204 2.5999 0.50771 2.1701 1.9333l-6.5892 21.188c-0.21043 0.86146-1.5322 1.2889-2.3674 0.43402l-8.8389-9.5523z"/><path d="m29.257 13.469 3.2374-8.562c0.37594-0.95107-0.22433-2.286-1.6233-1.815l-24.023 8.6014c-0.87688 0.31518-1.3475 1.5707-0.6313 2.3674l14.835 15.033c0.78912 0.80885 2.272 0.54252 2.7619-0.94694l5.4429-14.678"/></g></svg>
