<?xml version="1.0" encoding="UTF-8"?>
<svg data-name="Layer 1" version="1.1" viewBox="0 0 48 48" xml:space="preserve" xmlns="http://www.w3.org/2000/svg"><defs><style>
      .cls-1 {
        fill: none;
        stroke: #fff;
        stroke-linecap: round;
        stroke-linejoin: round;
      }
    </style></defs><g fill="none" stroke="#fff" stroke-linecap="round" stroke-linejoin="round"><path d="m36.816 31.216a6.5393 6.5393 0 0 1 2.5311 6.1893 6.5393 6.5393 0 0 1-4.2314 5.1777 6.5393 6.5393 0 0 1-6.5694-1.2479"/><path d="m10.161 23.851a5.3694 5.3694 0 0 1-0.90123-5.7722 5.3694 5.3694 0 0 1 4.902-3.1783"/><path d="m34.505 15.504a4.2445 4.2445 0 0 1 1.5828 5.6048 4.2445 4.2445 0 0 1-5.5023 1.9087"/><path d="m14.464 10.808a2.9697 2.9697 0 0 1-0.87024-3.2884 2.9697 2.9697 0 0 1 2.7885-1.9482"/><path d="m32.132 5.5119a2.8947 2.8947 0 0 1 2.6795 1.7323 2.8947 2.8947 0 0 1-0.54156 3.1444 2.8947 2.8947 0 0 1-3.1046 0.7361"/><path d="m10.121 23.817 18.39 17.541"/><path d="m16.336 5.4701h15.654"/><path d="m14.162 14.893 3.1162-3e-3c0.75269-6.26e-4 1.172-0.80771 0.44813-1.4745l-3.2644-2.6095"/><path d="m31.156 11.128-3.2072-1.3526c-1.2251-0.55115-1.8241 0.8555-0.94388 1.4529l7.4975 4.2766"/><path d="m30.582 23.014-5.4135-3.0022c-1.0365-0.47198-1.638 0.71032-0.96113 1.327l12.61 9.8791"/></g></svg>
