<?xml version="1.0" encoding="UTF-8"?>
<svg data-name="Layer 1" version="1.1" viewBox="0 0 48 48" xml:space="preserve" xmlns="http://www.w3.org/2000/svg"><defs><style>
      .cls-1 {
        fill: none;
        stroke: #fff;
        stroke-linecap: round;
        stroke-linejoin: round;
      }
    </style></defs><g><g fill="none" stroke="#fff" stroke-linecap="round" stroke-linejoin="round"><path d="m11.767 28.964a22.523 10.123 0 0 1-9.5447-11.183 22.523 10.123 0 0 1 20.871-7.4472 22.523 10.123 0 0 1 22.068 6.7143 22.523 10.123 0 0 1-7.6301 11.476"/><path d="m12.379 11.791c2.6647-4.8993 6.8353-7.279 11.352-7.2862 4.3529-0.00692 8.5042 2.2891 10.753 6.8948"/><path d="m10.908 26.688c-0.11886-2.6149 0.11274-3.8933 0.57135-5.5618 0.32909-1.1973 0.92327-2.034 1.9092-2.7888 1.9042-1.4578 4.4209-2.146 6.8134-2.3103 4.153-0.28513 6.6615-0.05324 10.832 0.82378 2.5108 0.52801 3.5224 1.9117 4.0956 2.7334 0.79855 1.1447 1.3973 2.3546 1.5964 3.736 0.15359 1.0657 0.07956 1.4235-0.18815 2.8368 0.80756 0.66804 0.74501 1.5045 0.71817 2.4056"/><path d="m10.139 43.397s-0.10807-1.6795 0.06921-2.3752c0.32969-1.2936 1.2637-2.4552 2.5848-2.9249m2.1701-0.33081c0.58527 0.01754 0.83874 0.09616 1.4253 0.29878 1.0063 0.34762 1.3368 1.4137 2.2478 1.9646 0.30073 0.18187 0.97893 0.39157 0.97893 0.39157"/><path d="m25.457 40.874s1.2093-0.56544 1.9313-0.67836c0.41677-0.06518 0.92698 0.29687 1.2598 0.51223 0.84164-0.06733 1.5575-0.11695 2.5127-0.02768m1.4488 0.42065c0.40692 0.19154 0.68163 0.38823 0.90475 0.60382 0.47139 0.45547 1.0522 1.6613 1.0522 1.6613"/><path d="m19.184 43.397 0.43073-3.0151 3.059-2.72c0.78284-0.69976 1.4794 0.23375 0.85396 0.908 1.1835-0.52451 1.9281 0.56512 0.46679 1.8011 1.0116-0.69446 1.6535-0.1537 1.1218 0.65708"/><path d="m21.876 40.072 1.6076-1.4475"/><path d="m21.221 43.435s0.26605-1.9967 1.0522-2.5196c0.54387-0.36178 1.0744-0.40673 1.6059-0.29073 0.5991 0.13076 1.08 0.61406 1.509 1.0522 0.5006 0.51116 1.0522 1.6336 1.0522 1.6336"/><path d="m22.033 43.495c1.1171-1.9396 1.2049-1.2863 1.7425-0.87125"/><path d="m11.633 26.788 1.3258 11.147 0.48946 4.3367c0.17425 1.7546 0.47807-1.1504 0.47968-2.8683 0.4687 1.3167 1.4319 2.5766 1.2824 1.0377 0 0-0.42149-4.0841-0.66567-6.1281-0.33785-2.8281-1.1356-8.4775-1.1356-8.4775 5.5131-4.4612 6.8144-6.5377 8.4199-9.7616"/><path d="m32.671 25.45-1.3083 15.245c-0.29837 3.1771 0.60546 2.7139 1.0181 0.35242l0.43073-2.5061c0.04281 1.0304 0.43588 3.0587 0.8223 0.03916 0 0 1.0744-9.7985 1.1356-11.081 0.02144-0.45013 0.04193-1.1929 0.04193-1.1929l1.7567-0.12087"/><path d="m34.332 32.526c1.0335-0.251 2.8572-1.4753 2.9173-4.0099"/><path d="m34.642 29.457c0.49975-0.08453 0.85624-0.39418 1.1747-0.76357"/><path d="m20.28 36.831c0.6534-0.576 0.98612-0.89974 1.4145-0.94025 0.61273-0.05794 1.7735-0.1138 2.2164-0.03704 0.43564 0.07551 1.2225 0.73296 1.4914 1.0327"/><g><circle cx="17.142" cy="27.501" r="2.3788"/><circle cx="28.581" cy="27.18" r="2.3796"/><path d="m28.502 24.873-0.02529 4.5382"/><path d="m26.293 27.302 4.5687-0.04406"/><path d="m14.872 27.55 4.5924 0.04096"/><path d="m17.179 25.091-0.01263 4.7575"/></g><path d="m24.862 40.5c2.7956-1.4334 5.0098-2.8643 6.8917-5.0513"/><path d="m14.493 33.841c0.59463 2.5498 3.0988 4.41 5.4961 6.0499"/></g><g fill="#fff"><circle cx="15.337" cy="31.28" r=".5"/><circle cx="17.212" cy="32.278" r=".5"/><circle cx="19.253" cy="31.42" r=".5"/><circle cx="26.457" cy="31.364" r=".5"/><circle cx="28.803" cy="32.527" r=".5"/><circle cx="30.567" cy="31.133" r=".5"/></g><g fill="none" stroke="#fff" stroke-linecap="round" stroke-linejoin="round"><path d="m16.393 29.881-0.21564 0.90571"/><path d="m17.687 29.881 0.2372 0.79789"/><path d="m15.142 29.019-0.77632 0.92727"/><path d="m27.713 29.529-0.28044 1.2727"/><path d="m29.093 29.55 0.28044 1.0139"/><path d="m30.41 28.818 0.84132 1.057"/></g><g fill="#fff" stroke="#fff" stroke-linecap="round" stroke-linejoin="round"><path d="m14.164 25.218c-0.92346 0.62673-2.2959 1.3483-3.2387 1.5761"/><path d="m19.682 21.991 1.2955-1.2091"/><path d="m23.844 20.817 1.5546 1.1227"/></g><path d="m23.664 16.064c1.1515 2.8068 3.3286 4.9884 4.5826 6.036 1.8598 1.5536 4.0033 3.1203 7.422 4.0687" fill="none" stroke="#fff" stroke-linecap="round" stroke-linejoin="round"/></g></svg>
