<?xml version="1.0" encoding="UTF-8"?>
<svg data-name="Layer 1" version="1.1" viewBox="0 0 48 48" xml:space="preserve" xmlns="http://www.w3.org/2000/svg"><defs><style>
      .cls-1 {
        fill: none;
        stroke: #fff;
        stroke-linecap: round;
        stroke-linejoin: round;
      }
    </style></defs><path d="m16.305 42.347c1.8924-2.1689 3.0918-3.2998 5.1655-5.6657 0.0566-0.71538 0.25137-1.9324 0.60786-2.5058 0.71654-1.1526 2.3957-3.1943 3.1422-3.9346 0.74732-0.74115 2.2008-1.4238 3.5314-2.0848 3.9356-4.1488 10.757-11.026 16.75-15.907-2.8986-1.7572-4.6119-1.6051-7.5245-1.2165l-7.5695-4.9112c-1.9302 7.4452-4.3676 15.808-9.6196 19.915l-3.7622 7.0288c-1.7885-1.4223-2.6292-2.6477-3.199-5.3617l-7.332-12.533c-0.70149-1.1076-1.2091-2.0533-2.1262-3.6027l-1.04 0.72608 5.3167 11.309c0.75893 2.2411 0.95553 4.1137 0.99125 6.9387 2.3707 4.0071 3.0939 7.194 6.6684 11.805z" fill="none" stroke="#fff" stroke-linecap="round" stroke-linejoin="round"/></svg>
