<?xml version="1.0" encoding="UTF-8"?>
<svg data-name="Layer 1" version="1.1" viewBox="0 0 48 48" xml:space="preserve" xmlns="http://www.w3.org/2000/svg"><defs><style>
      .cls-1 {
        fill: none;
        stroke: #fff;
        stroke-linecap: round;
        stroke-linejoin: round;
      }
    </style></defs><path d="m7.8677 35.671 4.8944 0.07664-0.06132-15.639s1.9969-3.6504 5.8557-3.6504c3.8588 0 4.3574 2.7787 4.3574 4.184v14.915h5.5498v-15.934c1.399-1.4153 2.8946-3.1662 5.4841-3.1662 3.9462 0 4.4665 3.1972 4.4665 3.9467v15.067l5.0391 0.03065v-15.366c0-3.128-1.4179-7.8528-6.7612-7.8835-5.9257-0.03399-7.7377 3.3735-9.0401 4.726-1.1187-1.6826-2.3987-4.5694-6.9913-4.6307-3.979-0.05312-6.6719 2.8459-7.7409 3.7213 0-1.2097-0.03591-3.0398-0.03591-3.0398h-5.2971v4.1671c-0.84006 1.0859-2.2145 1.7733-3.4469 2.0161v3.5987l0.88883 0.69372 2.3611-1.4763c0.59349 0.33487 0.61373 1.5023 0.61032 1.8059z" fill="none" stroke="#fff" stroke-linecap="round" stroke-linejoin="round"/></svg>
